<svg xmlns="http://www.w3.org/2000/svg" viewBox="0 0 1000 1000"><defs><style>.cls-1{fill:none;}</style></defs><title>logo</title><g id="Capa_2" data-name="Capa 2"><g id="Capa_1-2" data-name="Capa 1"><rect class="cls-1" width="1000" height="1000"/><path d="M562.89,654.61a8,8,0,0,0-11.3,0l-116.2,116.2c-53.8,53.8-144.6,59.5-204,0s-53.8-150.2,0-204l116.2-116.2a8,8,0,0,0,0-11.3l-39.8-39.8a8,8,0,0,0-11.3,0l-116.2,116.2c-84.6,84.6-84.6,221.5,0,306s221.5,84.6,306,0l116.2-116.2a8,8,0,0,0,0-11.3Zm258.6-474c-84.6-84.6-221.5-84.6-306,0l-116.3,116.2a8,8,0,0,0,0,11.3l39.7,39.7a8,8,0,0,0,11.3,0l116.2-116.2c53.8-53.8,144.6-59.5,204,0s53.8,150.2,0,204l-116.2,116.2a8,8,0,0,0,0,11.3l39.8,39.8a8,8,0,0,0,11.3,0l116.2-116.2c84.5-84.6,84.5-221.5,0-306.1ZM599,361.51a8,8,0,0,0-11.3,0l-226.5,226.4a8,8,0,0,0,0,11.3l39.6,39.6a8,8,0,0,0,11.3,0l226.4-226.4a8,8,0,0,0,0-11.3Z"/><path d="M675.36,684.51l40.83,152.36a7.49,7.49,0,0,0,12.54,3.36L840.27,728.7a7.5,7.5,0,0,0-3.37-12.55L684.55,675.33A7.5,7.5,0,0,0,675.36,684.51Z"/><circle cx="500" cy="500" r="15"/><path d="M324.64,315.49,283.81,163.13a7.49,7.49,0,0,0-12.54-3.36L159.73,271.3a7.5,7.5,0,0,0,3.37,12.55l152.35,40.82A7.5,7.5,0,0,0,324.64,315.49Z"/><circle cx="500" cy="500" r="15"/></g></g></svg>